<svg width="640" height="640" viewBox="0 0 640 640" fill="none" xmlns="http://www.w3.org/2000/svg">
<rect width="640" height="640" fill="white"/>
<path d="M250.044 320.56C250.044 371.388 298.516 383.302 298.516 462.228C298.516 533.899 240.645 592 169.258 592C97.8708 592 40 533.899 40 462.228C40 380.609 92.5111 368.491 92.5111 320.56C92.5111 272.629 40 259.43 40 177.811C40 106.436 97.8708 48.0389 169.258 48.0389C240.645 48.0389 298.516 106.14 298.516 177.811C298.516 258.083 250.044 269.733 250.044 320.56Z" fill="#2A6BFF"/>
<path fill-rule="evenodd" clip-rule="evenodd" d="M535.49 177.297C535.49 141.603 506.555 112.668 470.861 112.668C435.167 112.668 406.232 141.603 406.232 177.297C406.232 212.99 435.167 241.926 470.861 241.926C506.555 241.926 535.49 212.99 535.49 177.297ZM600.119 177.297C600.119 105.909 542.248 48.0385 470.861 48.0385C399.474 48.0385 341.603 105.909 341.603 177.297C341.603 248.684 399.474 306.555 470.861 306.555C542.248 306.555 600.119 248.684 600.119 177.297Z" fill="#AFC8FF"/>
<path fill-rule="evenodd" clip-rule="evenodd" d="M503.176 462.742C503.176 444.895 488.708 430.427 470.861 430.427C453.014 430.427 438.547 444.895 438.547 462.742C438.547 480.589 453.014 495.056 470.861 495.056C488.708 495.056 503.176 480.589 503.176 462.742ZM600.119 462.742C600.119 391.355 542.248 333.484 470.861 333.484C399.474 333.484 341.603 391.355 341.603 462.742C341.603 534.129 399.474 592 470.861 592C542.248 592 600.119 534.129 600.119 462.742Z" fill="#78A1FE"/>
</svg>
